<svg width="753" height="502" viewBox="0 0 753 502" fill="none" xmlns="http://www.w3.org/2000/svg">
<g clip-path="url(#clip0_523_1174)">
<path d="M274.744 278.794C272.109 278.242 269.795 276.676 268.302 274.432C266.81 272.188 266.258 269.447 266.765 266.8C266.879 266.215 267.044 265.641 267.259 265.086L239.884 241.46L257.781 236.391L281.033 259.603C283.475 260.77 285.361 262.852 286.283 265.399C287.204 267.946 287.088 270.754 285.958 273.216C284.998 275.281 283.365 276.959 281.327 277.972C279.29 278.986 276.968 279.276 274.744 278.794L274.744 278.794Z" fill="#FFB6B6"/>
<path d="M96.9795 446.339L95.9845 423.941C85.6123 418.39 74.0434 415.458 62.2825 415.399C78.469 428.648 76.4462 454.188 87.4202 472.005C90.8855 477.535 95.5494 482.214 101.066 485.695C106.583 489.176 112.812 491.369 119.291 492.112L132.836 500.415C134.695 490.042 134.285 479.388 131.635 469.188C128.985 458.988 124.158 449.484 117.486 441.332C113.698 436.796 109.354 432.755 104.558 429.305C101.313 437.869 96.9795 446.339 96.9795 446.339Z" fill="#F2F2F2"/>
<path d="M131.88 488.889L144.146 488.888L149.98 441.525L131.878 441.526L131.88 488.889Z" fill="#FFB6B6"/>
<path d="M128.753 500.792L168.301 500.79V500.289C168.3 496.202 166.679 492.283 163.792 489.392C160.905 486.502 156.99 484.879 152.908 484.878H152.907L145.683 479.392L132.204 484.879L128.752 484.879L128.753 500.792Z" fill="#2F2E41"/>
<path d="M188.863 488.889L201.128 488.888L206.963 441.525L188.861 441.526L188.863 488.889Z" fill="#FFB6B6"/>
<path d="M185.734 500.792L225.282 500.79V500.289C225.282 496.202 223.66 492.283 220.773 489.392C217.887 486.502 213.971 484.879 209.889 484.878H209.888L202.664 479.392L189.186 484.879L185.733 484.879L185.734 500.792Z" fill="#2F2E41"/>
<path d="M194.172 229.948L114.393 231.945C99.2419 240.184 99.0118 258.017 103.976 279.189C103.976 279.189 102.3 291.773 105.652 295.129C109.004 298.485 110.68 298.485 109.004 304.357C107.328 310.23 116.183 319.822 115.107 320.898C114.032 321.975 111.518 327.848 111.518 327.848L119.898 375.667C119.898 375.667 125.763 458.723 127.439 460.401C129.115 462.079 130.791 460.401 129.115 464.595C127.439 468.79 125.763 467.112 127.439 468.79C128.924 470.393 130.323 472.073 131.629 473.824H151.889C151.889 473.824 153.416 465.434 153.416 464.595C153.416 463.756 155.092 458.723 155.092 457.884C155.092 457.045 153.611 455.562 153.611 455.562C153.099 453.856 152.753 452.105 152.578 450.333C152.578 448.655 147.551 384.057 147.551 384.057L157.606 300.163L181.907 382.379C181.907 382.379 181.907 454.528 183.583 456.206C185.259 457.884 185.259 457.045 184.421 460.401C183.583 463.756 180.231 462.917 182.745 465.434C185.259 467.951 186.097 463.756 185.259 467.951L184.421 472.146L209.56 472.506C209.56 472.506 212.912 465.434 211.236 462.917C209.56 460.401 209.661 461.088 211.706 456.969C213.75 452.85 214.588 452.011 213.75 451.172C212.912 450.333 212.912 445.871 212.912 445.871L208.722 365.6C208.722 365.6 207.885 280.867 207.885 278.35C207.821 277.055 208.06 275.763 208.581 274.576V271.16L205.371 259.054L194.172 229.948Z" fill="#2F2E41"/>
<path d="M275.666 251.543L262.183 262.428L188.681 205.387L193.031 106.109C197.164 109.42 200.601 113.519 203.143 118.168C205.685 122.817 207.28 127.925 207.838 133.195L220.431 189.276L275.666 251.543Z" fill="#E6E6E6"/>
<path d="M206.078 255.026C180.06 258.355 156.089 248.27 133.446 240.657C123.224 237.221 112.926 240.808 103.436 234.997C107.54 194.531 103.555 148.949 94.8387 100.374C94.3414 97.6242 94.8602 94.7871 96.2985 92.3921C97.7368 89.9971 99.9963 88.2077 102.655 87.3579L130.744 79.2899L139.392 69.7388L161.727 75.4152L169.545 89.5634L196.412 107.738C197.98 108.799 199.209 110.29 199.951 112.032C200.693 113.775 200.916 115.695 200.594 117.562C192.522 163.245 194.393 210.134 206.078 255.026Z" fill="#E6E6E6"/>
<path d="M123.043 267.551C120.658 266.3 118.859 264.161 118.034 261.595C117.21 259.028 117.426 256.24 118.636 253.832C118.904 253.3 119.219 252.794 119.577 252.318L99.6803 222.11L118.28 222.123L134.323 250.806C136.355 252.596 137.602 255.114 137.794 257.816C137.987 260.518 137.109 263.188 135.351 265.247C133.865 266.972 131.837 268.14 129.6 268.559C127.363 268.977 125.051 268.622 123.043 267.551L123.043 267.551Z" fill="#FFB6B6"/>
<path d="M128.662 239.351L116.484 255.026L73.8618 191.454L77.5481 126.868C78.0177 118.642 80.5577 110.668 84.932 103.689C89.3062 96.7101 95.3726 90.9521 102.567 86.9507L101.697 186.228L128.662 239.351Z" fill="#E6E6E6"/>
<path d="M159.264 66.0433C144.211 66.0433 132.007 53.8257 132.007 38.7546C132.007 23.6834 144.211 11.4658 159.264 11.4658C174.318 11.4658 186.521 23.6834 186.521 38.7546C186.521 53.8257 174.318 66.0433 159.264 66.0433Z" fill="#FFB6B6"/>
<path d="M176.631 22.7396C175.576 22.7478 174.527 22.8857 173.506 23.1502C171.493 23.6347 169.449 23.9779 167.388 24.1773C161.078 24.7717 155.149 27.4658 150.547 31.8295C145.946 36.1933 142.938 41.9748 142.004 48.2507C140.42 46.8682 136.816 44.3252 133.862 46.6887C133.817 46.7262 133.791 46.7455 133.687 46.6962C131.725 45.7645 128.243 34.296 128.137 24.1982C128.082 18.8387 128.925 11.9948 133.254 9.82749L133.482 9.7133L133.542 9.46511C133.831 8.25951 137.063 6.20157 142.68 4.59982C152.888 1.68901 168.103 -3.98132 176.671 4.36354C177.32 7.1768 179.429 13.1972 181.56 13.8796C183.92 14.6349 185.958 15.2867 186.279 18.1847C186.547 22.3087 186.528 26.4464 186.221 30.5677C185.421 28.0458 183.852 25.8385 181.733 24.2566C180.227 23.2414 178.447 22.712 176.631 22.7396Z" fill="#2F2E41"/>
<path d="M6.10352e-05 500.964C-0.000305176 501.1 0.026123 501.235 0.0780029 501.361C0.129883 501.487 0.206177 501.601 0.302368 501.697C0.39856 501.794 0.512756 501.87 0.63855 501.922C0.764343 501.974 0.89917 502 1.03528 502H751.965C752.239 502 752.503 501.891 752.697 501.696C752.891 501.502 753 501.238 753 500.964C753 500.689 752.891 500.425 752.697 500.231C752.503 500.036 752.239 499.927 751.965 499.927H1.03516C0.899109 499.927 0.764343 499.953 0.63855 500.005C0.512756 500.057 0.39856 500.134 0.302368 500.23C0.206177 500.326 0.129883 500.441 0.0780029 500.567C0.026123 500.692 -0.000305176 500.827 6.10352e-05 500.964Z" fill="#CCCCCC"/>
<path d="M442.224 88.0631L544.54 111.109C547.281 111.73 549.664 113.414 551.167 115.792C552.67 118.169 553.169 121.047 552.555 123.793L524.499 248.643L404.284 221.566C403.296 221.346 402.392 220.847 401.681 220.127L429.554 96.0881C430.175 93.3436 431.857 90.9574 434.232 89.4529C436.607 87.9485 439.481 87.4487 442.224 88.0631Z" fill="#E6E6E6"/>
<path d="M479.39 105.255L535.462 117.884C537.958 118.449 540.128 119.982 541.497 122.147C542.866 124.312 543.322 126.932 542.763 129.432L516.385 246.815L409.617 222.767L428.827 137.282C431.302 126.329 438.015 116.805 447.494 110.801C456.973 104.797 468.444 102.802 479.39 105.255Z" fill="white"/>
<path d="M430.149 216.439L500.538 232.294C500.84 232.361 501.125 232.487 501.378 232.665C501.631 232.843 501.847 233.07 502.012 233.331C502.178 233.592 502.29 233.884 502.343 234.189C502.396 234.494 502.388 234.806 502.321 235.108C502.253 235.41 502.126 235.696 501.948 235.949C501.77 236.202 501.543 236.417 501.282 236.582C501.02 236.748 500.729 236.86 500.424 236.912C500.119 236.964 499.807 236.956 499.506 236.887L429.117 221.033C428.815 220.966 428.529 220.84 428.276 220.662C428.022 220.484 427.807 220.258 427.641 219.996C427.475 219.735 427.363 219.443 427.31 219.138C427.257 218.833 427.264 218.52 427.332 218.218C427.4 217.916 427.527 217.63 427.705 217.377C427.884 217.124 428.11 216.909 428.372 216.743C428.634 216.578 428.925 216.466 429.23 216.414C429.535 216.362 429.847 216.37 430.149 216.439Z" fill="#E4E4E4"/>
<path d="M432.19 207.355L502.58 223.209C503.189 223.347 503.719 223.72 504.052 224.249C504.386 224.777 504.497 225.416 504.36 226.026C504.223 226.636 503.849 227.166 503.322 227.5C502.794 227.834 502.155 227.945 501.546 227.808L431.157 211.953C430.856 211.885 430.57 211.759 430.318 211.58C430.065 211.402 429.85 211.176 429.685 210.914C429.519 210.652 429.407 210.361 429.354 210.056C429.302 209.751 429.309 209.439 429.377 209.137C429.445 208.835 429.572 208.549 429.75 208.296C429.928 208.043 430.154 207.828 430.415 207.662C430.677 207.497 430.968 207.385 431.272 207.332C431.577 207.279 431.889 207.287 432.191 207.355H432.19Z" fill="#E4E4E4"/>
<path d="M474.108 207.257L504.621 214.13C505.229 214.267 505.758 214.64 506.092 215.168C506.425 215.696 506.536 216.334 506.399 216.943C506.262 217.553 505.889 218.082 505.362 218.416C504.835 218.75 504.197 218.861 503.588 218.723L473.076 211.851C472.774 211.784 472.488 211.657 472.235 211.48C471.982 211.302 471.766 211.075 471.6 210.814C471.434 210.552 471.322 210.261 471.269 209.956C471.216 209.651 471.224 209.338 471.291 209.036C471.359 208.734 471.486 208.448 471.665 208.195C471.843 207.942 472.069 207.726 472.331 207.561C472.593 207.396 472.884 207.284 473.189 207.232C473.494 207.18 473.806 207.188 474.108 207.257Z" fill="#E4E4E4"/>
<path d="M438.506 179.254L508.895 195.108C509.197 195.176 509.482 195.303 509.735 195.481C509.987 195.66 510.202 195.886 510.368 196.147C510.702 196.676 510.812 197.315 510.675 197.925C510.538 198.535 510.165 199.065 509.637 199.399C509.109 199.733 508.471 199.844 507.862 199.707L437.473 183.852C437.171 183.784 436.886 183.657 436.633 183.479C436.38 183.301 436.165 183.074 436 182.813C435.835 182.551 435.723 182.26 435.67 181.955C435.617 181.65 435.625 181.338 435.693 181.036C435.761 180.734 435.887 180.448 436.065 180.195C436.243 179.942 436.47 179.727 436.731 179.561C436.992 179.396 437.283 179.284 437.588 179.231C437.892 179.178 438.204 179.186 438.506 179.254Z" fill="#E4E4E4"/>
<path d="M440.545 170.174L510.935 186.029C511.236 186.096 511.522 186.222 511.775 186.4C512.028 186.578 512.243 186.804 512.409 187.066C512.574 187.327 512.687 187.619 512.74 187.924C512.793 188.229 512.785 188.541 512.717 188.843C512.649 189.145 512.523 189.431 512.344 189.684C512.166 189.937 511.94 190.152 511.678 190.317C511.417 190.482 511.125 190.594 510.821 190.647C510.516 190.699 510.204 190.691 509.902 190.622L439.513 174.768C439.212 174.7 438.926 174.574 438.674 174.396C438.421 174.218 438.206 173.991 438.04 173.73C437.875 173.469 437.763 173.177 437.71 172.873C437.657 172.568 437.665 172.256 437.733 171.954C437.801 171.652 437.927 171.366 438.105 171.114C438.283 170.861 438.51 170.646 438.771 170.48C439.032 170.315 439.323 170.203 439.628 170.15C439.932 170.098 440.244 170.106 440.545 170.174Z" fill="#E4E4E4"/>
<path d="M482.464 170.072L512.976 176.944C513.278 177.012 513.563 177.139 513.816 177.317C514.068 177.496 514.284 177.722 514.449 177.984C514.614 178.245 514.726 178.537 514.779 178.842C514.832 179.147 514.824 179.459 514.756 179.761C514.688 180.063 514.562 180.348 514.384 180.601C514.205 180.854 513.979 181.07 513.718 181.235C513.457 181.401 513.166 181.513 512.861 181.566C512.556 181.618 512.244 181.611 511.943 181.543L481.43 174.67C481.129 174.602 480.843 174.475 480.591 174.297C480.338 174.119 480.123 173.892 479.958 173.631C479.792 173.369 479.68 173.078 479.628 172.773C479.575 172.468 479.583 172.155 479.65 171.854C479.718 171.552 479.845 171.266 480.023 171.013C480.201 170.76 480.427 170.545 480.688 170.379C480.95 170.214 481.241 170.101 481.546 170.049C481.85 169.996 482.162 170.004 482.464 170.072Z" fill="#E4E4E4"/>
<path d="M446.861 142.068L517.251 157.923C517.86 158.06 518.389 158.434 518.723 158.962C519.057 159.49 519.168 160.129 519.03 160.739C518.893 161.349 518.52 161.879 517.992 162.214C517.465 162.548 516.826 162.658 516.217 162.521L445.828 146.667C445.526 146.599 445.241 146.472 444.989 146.294C444.736 146.115 444.521 145.889 444.356 145.627C444.19 145.366 444.078 145.074 444.025 144.769C443.973 144.464 443.98 144.152 444.048 143.85C444.116 143.548 444.243 143.263 444.421 143.01C444.599 142.757 444.825 142.541 445.086 142.376C445.347 142.21 445.639 142.098 445.943 142.045C446.248 141.992 446.56 142 446.861 142.068Z" fill="#E6E6E6"/>
<path d="M448.902 132.989L519.292 148.843C519.593 148.911 519.879 149.038 520.131 149.216C520.384 149.394 520.599 149.621 520.764 149.882C521.098 150.411 521.209 151.05 521.071 151.66C520.934 152.269 520.561 152.8 520.034 153.134C519.506 153.468 518.867 153.579 518.258 153.442L447.869 137.587C447.567 137.519 447.282 137.392 447.03 137.214C446.777 137.036 446.562 136.809 446.396 136.548C446.231 136.286 446.119 135.995 446.066 135.69C446.014 135.385 446.021 135.072 446.089 134.771C446.157 134.469 446.284 134.183 446.462 133.93C446.64 133.677 446.866 133.462 447.127 133.296C447.388 133.131 447.68 133.018 447.984 132.966C448.289 132.913 448.601 132.921 448.902 132.989Z" fill="#E6E6E6"/>
<path d="M490.82 132.886L521.333 139.759C521.942 139.896 522.471 140.27 522.805 140.798C523.139 141.326 523.25 141.965 523.113 142.575C522.975 143.185 522.602 143.715 522.074 144.049C521.547 144.384 520.908 144.494 520.299 144.357L489.787 137.484C489.485 137.417 489.2 137.29 488.947 137.111C488.695 136.933 488.479 136.707 488.314 136.445C488.149 136.184 488.037 135.892 487.984 135.587C487.931 135.282 487.939 134.97 488.007 134.668C488.075 134.366 488.201 134.08 488.379 133.828C488.558 133.575 488.784 133.359 489.045 133.194C489.306 133.028 489.597 132.916 489.902 132.863C490.206 132.81 490.519 132.818 490.82 132.886Z" fill="#E6E6E6"/>
<path d="M646.345 232.922C647.012 232.923 647.651 233.188 648.123 233.66C648.594 234.133 648.86 234.773 648.86 235.44V495.868C648.86 496.536 648.594 497.176 648.123 497.648C647.651 498.12 647.012 498.386 646.345 498.387H320.199C319.532 498.386 318.893 498.12 318.422 497.648C317.95 497.176 317.685 496.536 317.684 495.868V277.245C317.685 276.577 317.95 275.937 318.422 275.464C318.893 274.992 319.532 274.726 320.199 274.726H507.385C509.286 274.727 511.118 274.018 512.523 272.738L554.606 234.457C555.691 233.468 557.106 232.921 558.574 232.922H646.345Z" fill="#3F3D56"/>
<path d="M257.12 164.807L431.753 89.642C436.435 87.633 441.722 87.5656 446.454 89.4544C451.187 91.3432 454.977 95.034 456.995 99.7172L548.501 312.812L343.317 401.126C341.635 401.856 339.778 402.086 337.968 401.788L247.056 190.078C245.05 185.39 244.982 180.097 246.869 175.359C248.756 170.622 252.442 166.827 257.12 164.807Z" fill="#E6E6E6"/>
<path d="M329.928 150.446L425.632 109.254C429.895 107.424 434.709 107.362 439.019 109.08C443.328 110.799 446.78 114.159 448.619 118.423L534.652 318.772L352.42 397.208L289.765 251.302C281.757 232.593 281.488 211.468 289.017 192.56C296.546 173.653 311.259 158.507 329.928 150.446Z" fill="white"/>
<path d="M375.825 366.052L495.966 314.342C496.48 314.119 497.033 314.001 497.594 313.993C498.154 313.984 498.71 314.087 499.231 314.294C499.752 314.502 500.226 314.81 500.628 315.201C501.03 315.592 501.35 316.059 501.571 316.574C501.793 317.089 501.91 317.643 501.918 318.204C501.925 318.765 501.822 319.322 501.614 319.843C501.406 320.364 501.097 320.839 500.706 321.24C500.315 321.641 499.848 321.962 499.333 322.182L379.192 373.893C378.678 374.115 378.125 374.234 377.564 374.242C377.004 374.25 376.448 374.148 375.927 373.94C375.407 373.733 374.932 373.425 374.53 373.034C374.129 372.643 373.808 372.176 373.587 371.661C373.365 371.145 373.248 370.591 373.241 370.03C373.233 369.469 373.337 368.913 373.545 368.392C373.752 367.871 374.061 367.396 374.452 366.995C374.844 366.593 375.31 366.273 375.825 366.052Z" fill="#E4E4E4"/>
<path d="M369.167 350.547L489.308 298.837C490.347 298.39 491.521 298.375 492.572 298.794C493.623 299.214 494.464 300.034 494.911 301.075C495.358 302.115 495.374 303.291 494.955 304.343C494.536 305.395 493.717 306.238 492.678 306.685L372.537 358.396C372.023 358.617 371.469 358.735 370.909 358.743C370.349 358.75 369.793 358.647 369.272 358.439C368.752 358.232 368.277 357.923 367.876 357.532C367.474 357.141 367.154 356.674 366.932 356.159C366.711 355.643 366.593 355.089 366.586 354.528C366.579 353.968 366.682 353.411 366.889 352.89C367.096 352.368 367.404 351.893 367.795 351.492C368.186 351.09 368.652 350.769 369.167 350.547H369.167Z" fill="#E4E4E4"/>
<path d="M430.573 305.755L482.652 283.34C483.167 283.118 483.72 282.999 484.28 282.992C484.84 282.984 485.396 283.086 485.916 283.294C486.436 283.501 486.911 283.809 487.312 284.2C487.713 284.591 488.034 285.058 488.255 285.573C488.476 286.088 488.594 286.642 488.601 287.202C488.609 287.763 488.505 288.32 488.298 288.84C488.09 289.361 487.782 289.836 487.391 290.237C487 290.639 486.534 290.959 486.019 291.18L433.94 313.596C433.426 313.818 432.873 313.936 432.313 313.944C431.753 313.952 431.197 313.849 430.677 313.641C430.156 313.434 429.682 313.126 429.281 312.735C428.879 312.344 428.559 311.877 428.338 311.362C428.117 310.847 427.999 310.294 427.992 309.733C427.984 309.172 428.087 308.616 428.295 308.095C428.503 307.574 428.811 307.1 429.202 306.698C429.593 306.297 430.059 305.976 430.573 305.755Z" fill="#E4E4E4"/>
<path d="M348.571 302.584L468.712 250.873C469.751 250.427 470.925 250.413 471.975 250.832C473.025 251.252 473.866 252.072 474.312 253.112C474.759 254.152 474.775 255.327 474.357 256.379C473.939 257.431 473.12 258.274 472.082 258.722L351.941 310.432C351.427 310.655 350.873 310.773 350.312 310.781C349.751 310.79 349.195 310.687 348.673 310.479C348.152 310.272 347.677 309.963 347.275 309.572C346.873 309.18 346.553 308.713 346.331 308.197C346.11 307.682 345.992 307.127 345.985 306.566C345.977 306.004 346.081 305.447 346.289 304.926C346.497 304.404 346.805 303.929 347.197 303.527C347.589 303.125 348.056 302.805 348.571 302.584Z" fill="#E4E4E4"/>
<path d="M341.916 287.087L462.057 235.377C462.571 235.154 463.124 235.035 463.685 235.027C464.245 235.019 464.801 235.122 465.322 235.329C465.842 235.536 466.317 235.844 466.719 236.236C467.12 236.627 467.441 237.093 467.662 237.609C467.884 238.124 468.001 238.678 468.008 239.239C468.016 239.8 467.912 240.357 467.704 240.878C467.497 241.398 467.188 241.873 466.797 242.275C466.405 242.676 465.939 242.996 465.424 243.217L345.283 294.927C344.769 295.15 344.216 295.268 343.655 295.277C343.095 295.285 342.539 295.182 342.018 294.975C341.497 294.768 341.023 294.46 340.621 294.068C340.219 293.677 339.899 293.211 339.678 292.695C339.456 292.18 339.339 291.626 339.331 291.065C339.324 290.504 339.427 289.947 339.635 289.426C339.843 288.905 340.152 288.431 340.543 288.029C340.934 287.628 341.401 287.308 341.916 287.087Z" fill="#E4E4E4"/>
<path d="M403.319 242.287L455.398 219.872C456.438 219.425 457.612 219.409 458.663 219.829C459.714 220.249 460.555 221.069 461.002 222.109C461.449 223.15 461.464 224.325 461.046 225.378C460.627 226.43 459.808 227.272 458.769 227.72L406.69 250.136C406.175 250.357 405.622 250.476 405.061 250.483C404.501 250.491 403.944 250.388 403.424 250.18C402.903 249.973 402.428 249.664 402.027 249.273C401.625 248.881 401.305 248.415 401.083 247.899C400.862 247.384 400.744 246.83 400.737 246.269C400.729 245.708 400.832 245.151 401.04 244.629C401.248 244.108 401.556 243.633 401.947 243.231C402.338 242.829 402.804 242.509 403.319 242.287Z" fill="#E4E4E4"/>
<path d="M321.317 239.115L441.457 187.405C442.496 186.959 443.67 186.945 444.72 187.365C445.769 187.785 446.61 188.605 447.056 189.644C447.503 190.684 447.519 191.859 447.101 192.911C446.683 193.962 445.865 194.805 444.827 195.253L324.687 246.964C324.172 247.186 323.619 247.304 323.058 247.311C322.498 247.319 321.942 247.216 321.421 247.008C320.9 246.801 320.426 246.492 320.024 246.101C319.622 245.71 319.302 245.243 319.08 244.727C318.859 244.212 318.741 243.658 318.734 243.097C318.727 242.536 318.83 241.979 319.037 241.458C319.245 240.936 319.553 240.461 319.944 240.059C320.335 239.658 320.802 239.337 321.317 239.115Z" fill="#6C63FF"/>
<path d="M314.662 223.618L434.803 171.908C435.842 171.462 437.016 171.447 438.066 171.867C439.116 172.287 439.956 173.107 440.403 174.147C440.85 175.187 440.866 176.362 440.448 177.414C440.029 178.466 439.211 179.308 438.173 179.756L318.032 231.467C317.517 231.69 316.963 231.81 316.402 231.819C315.841 231.827 315.283 231.725 314.761 231.518C314.24 231.31 313.764 231.002 313.361 230.61C312.959 230.218 312.638 229.751 312.416 229.235C312.194 228.718 312.076 228.163 312.069 227.601C312.062 227.039 312.166 226.482 312.375 225.96C312.583 225.438 312.893 224.963 313.285 224.561C313.678 224.159 314.146 223.839 314.662 223.618Z" fill="#6C63FF"/>
<path d="M376.066 178.819L428.145 156.403C429.184 155.956 430.358 155.941 431.409 156.361C432.46 156.78 433.301 157.601 433.748 158.641C434.195 159.682 434.21 160.857 433.792 161.909C433.373 162.961 432.554 163.804 431.515 164.252L379.436 186.667C378.921 186.889 378.368 187.007 377.807 187.015C377.247 187.023 376.69 186.92 376.17 186.712C375.649 186.504 375.175 186.196 374.773 185.805C374.371 185.413 374.051 184.946 373.829 184.431C373.608 183.915 373.49 183.361 373.483 182.8C373.475 182.239 373.578 181.682 373.786 181.161C373.994 180.64 374.302 180.165 374.693 179.763C375.084 179.361 375.551 179.04 376.066 178.819V178.819Z" fill="#6C63FF"/>
<path d="M505.723 242.205L608.039 265.251C610.78 265.872 613.163 267.556 614.666 269.934C616.169 272.312 616.668 275.189 616.054 277.935L587.998 402.785L467.783 375.708C466.795 375.489 465.892 374.989 465.18 374.269L493.054 250.23C493.674 247.486 495.356 245.099 497.731 243.595C500.106 242.091 502.98 241.591 505.723 242.205Z" fill="#E6E6E6"/>
<path d="M542.889 259.397L598.961 272.026C601.457 272.591 603.628 274.124 604.996 276.289C606.365 278.454 606.821 281.074 606.262 283.575L579.884 400.958L473.116 376.909L492.326 291.424C494.801 280.471 501.514 270.947 510.993 264.943C520.472 258.939 531.943 256.944 542.889 259.397Z" fill="white"/>
<path d="M493.648 370.581L564.037 386.435C564.339 386.503 564.624 386.629 564.877 386.807C565.13 386.985 565.346 387.211 565.511 387.473C565.677 387.734 565.789 388.026 565.842 388.331C565.895 388.636 565.887 388.948 565.82 389.25C565.752 389.552 565.625 389.838 565.447 390.09C565.269 390.343 565.042 390.559 564.781 390.724C564.519 390.889 564.228 391.001 563.923 391.054C563.618 391.106 563.306 391.098 563.005 391.029L492.616 375.175C492.314 375.107 492.028 374.981 491.775 374.803C491.521 374.625 491.306 374.399 491.14 374.138C490.974 373.876 490.862 373.585 490.809 373.279C490.756 372.974 490.763 372.662 490.831 372.36C490.899 372.057 491.026 371.772 491.204 371.519C491.383 371.266 491.609 371.05 491.871 370.885C492.133 370.72 492.424 370.608 492.729 370.556C493.034 370.503 493.346 370.512 493.648 370.581Z" fill="#E4E4E4"/>
<path d="M495.69 361.496L566.079 377.351C566.688 377.488 567.218 377.862 567.551 378.39C567.885 378.918 567.996 379.558 567.859 380.167C567.722 380.777 567.348 381.308 566.821 381.642C566.293 381.976 565.654 382.087 565.045 381.949L494.656 366.095C494.047 365.958 493.517 365.584 493.184 365.056C492.85 364.527 492.739 363.888 492.876 363.278C493.013 362.669 493.387 362.138 493.914 361.804C494.442 361.47 495.08 361.359 495.69 361.496Z" fill="#E4E4E4"/>
<path d="M537.606 361.399L568.119 368.271C568.42 368.339 568.705 368.466 568.957 368.644C569.21 368.822 569.425 369.048 569.59 369.309C569.755 369.571 569.867 369.862 569.92 370.167C569.972 370.471 569.965 370.783 569.897 371.085C569.829 371.387 569.703 371.672 569.525 371.925C569.347 372.177 569.121 372.392 568.86 372.558C568.599 372.723 568.308 372.835 568.004 372.888C567.699 372.941 567.388 372.933 567.086 372.865L536.574 365.992C536.272 365.925 535.986 365.799 535.733 365.621C535.48 365.443 535.264 365.217 535.098 364.956C534.932 364.694 534.82 364.402 534.767 364.097C534.714 363.792 534.722 363.48 534.79 363.177C534.857 362.875 534.984 362.589 535.163 362.336C535.341 362.083 535.567 361.868 535.829 361.703C536.091 361.538 536.382 361.426 536.687 361.374C536.992 361.321 537.304 361.33 537.606 361.399Z" fill="#E4E4E4"/>
<path d="M502.004 333.395L572.393 349.25C572.695 349.318 572.98 349.445 573.233 349.623C573.485 349.801 573.701 350.028 573.866 350.289C574.2 350.817 574.31 351.457 574.173 352.066C574.036 352.676 573.663 353.206 573.135 353.541C572.607 353.875 571.969 353.985 571.36 353.848L500.971 337.994C500.362 337.857 499.832 337.483 499.498 336.955C499.164 336.426 499.054 335.787 499.191 335.177C499.328 334.567 499.701 334.037 500.229 333.703C500.756 333.369 501.395 333.258 502.004 333.395Z" fill="#E4E4E4"/>
<path d="M504.044 324.316L574.434 340.17C574.735 340.238 575.021 340.364 575.274 340.542C575.527 340.72 575.742 340.946 575.908 341.207C576.073 341.469 576.186 341.76 576.239 342.065C576.292 342.37 576.284 342.683 576.216 342.985C576.148 343.287 576.022 343.572 575.843 343.825C575.665 344.078 575.439 344.294 575.177 344.459C574.916 344.624 574.624 344.736 574.32 344.788C574.015 344.841 573.703 344.832 573.401 344.764L503.012 328.909C502.711 328.842 502.425 328.715 502.173 328.537C501.92 328.359 501.705 328.133 501.539 327.872C501.374 327.61 501.262 327.319 501.209 327.014C501.156 326.709 501.164 326.397 501.232 326.095C501.3 325.793 501.426 325.508 501.604 325.255C501.782 325.002 502.009 324.787 502.27 324.622C502.531 324.457 502.822 324.345 503.127 324.292C503.431 324.239 503.743 324.248 504.044 324.316Z" fill="#E4E4E4"/>
<path d="M545.963 324.213L576.475 331.086C577.084 331.223 577.614 331.597 577.948 332.125C578.282 332.653 578.392 333.293 578.255 333.902C578.118 334.512 577.745 335.042 577.217 335.377C576.69 335.711 576.051 335.821 575.442 335.684L544.929 328.812C544.32 328.674 543.791 328.301 543.457 327.772C543.123 327.244 543.012 326.605 543.149 325.995C543.286 325.385 543.66 324.855 544.187 324.521C544.715 324.187 545.354 324.076 545.963 324.213Z" fill="#E4E4E4"/>
<path d="M510.36 296.21L580.75 312.064C581.051 312.132 581.337 312.259 581.589 312.437C581.842 312.616 582.057 312.842 582.222 313.104C582.556 313.632 582.667 314.271 582.53 314.881C582.392 315.491 582.019 316.021 581.492 316.355C580.964 316.689 580.325 316.8 579.716 316.663L509.327 300.808C509.025 300.74 508.74 300.614 508.488 300.435C508.235 300.257 508.02 300.031 507.855 299.769C507.689 299.507 507.577 299.216 507.524 298.911C507.472 298.606 507.479 298.294 507.547 297.992C507.615 297.69 507.742 297.404 507.92 297.151C508.098 296.898 508.324 296.683 508.585 296.517C508.846 296.352 509.138 296.24 509.442 296.187C509.747 296.134 510.059 296.142 510.36 296.21H510.36Z" fill="#E6E6E6"/>
<path d="M512.4 287.13L582.79 302.985C583.091 303.053 583.377 303.179 583.629 303.358C583.882 303.536 584.097 303.762 584.262 304.024C584.596 304.552 584.707 305.191 584.57 305.801C584.433 306.411 584.059 306.941 583.532 307.275C583.004 307.61 582.365 307.72 581.756 307.583L511.367 291.729C510.758 291.591 510.228 291.218 509.895 290.689C509.561 290.161 509.45 289.522 509.587 288.912C509.724 288.302 510.098 287.772 510.625 287.438C511.153 287.104 511.791 286.993 512.4 287.13H512.4Z" fill="#E6E6E6"/>
<path d="M554.319 287.028L584.832 293.9C585.441 294.038 585.97 294.411 586.304 294.94C586.638 295.468 586.749 296.107 586.612 296.717C586.474 297.327 586.101 297.857 585.574 298.191C585.046 298.525 584.407 298.636 583.798 298.499L553.286 291.626C552.984 291.558 552.699 291.431 552.446 291.253C552.194 291.075 551.978 290.848 551.813 290.587C551.648 290.325 551.536 290.034 551.483 289.729C551.43 289.424 551.438 289.112 551.506 288.81C551.574 288.508 551.7 288.222 551.878 287.969C552.057 287.716 552.283 287.501 552.544 287.335C552.805 287.17 553.096 287.058 553.401 287.005C553.706 286.952 554.018 286.96 554.319 287.028Z" fill="#E6E6E6"/>
<path d="M648.506 301.324C648.836 301.324 649.163 301.389 649.468 301.516C649.773 301.642 650.051 301.828 650.284 302.061C650.518 302.295 650.703 302.573 650.83 302.878C650.956 303.184 651.021 303.511 651.021 303.842C651.021 303.936 650.944 497.892 650.944 497.892C650.875 498.508 650.582 499.076 650.121 499.489C649.66 499.901 649.063 500.129 648.444 500.129H298.094C297.475 500.129 296.878 499.902 296.417 499.489C295.956 499.076 295.663 498.508 295.594 497.892L273.787 304.125C273.747 303.772 273.782 303.416 273.889 303.078C273.997 302.74 274.174 302.429 274.41 302.164C274.645 301.899 274.934 301.686 275.257 301.541C275.581 301.396 275.931 301.322 276.286 301.324L648.506 301.324Z" fill="#3F3D56"/>
<path d="M623.783 312.062C627.338 312.073 630.745 313.483 633.27 315.988C635.794 318.493 637.232 321.893 637.273 325.451L636.836 475.767C636.852 477.551 636.514 479.32 635.843 480.972C635.172 482.625 634.181 484.127 632.927 485.394C631.672 486.661 630.18 487.666 628.535 488.352C626.891 489.038 625.127 489.392 623.345 489.391H400.945C375.438 489.408 350.82 480.01 331.8 462.993C312.781 445.977 300.696 422.537 297.857 397.159L289.97 327.081C289.757 325.192 289.945 323.279 290.522 321.467C291.099 319.656 292.051 317.986 293.316 316.569C294.582 315.151 296.132 314.017 297.866 313.24C299.599 312.464 301.477 312.062 303.376 312.062H623.783ZM282.968 312.062L283.008 311.191H282.968V312.062Z" fill="#6C63FF"/>
<path d="M526.636 424.679H612.791C613.681 424.679 614.535 424.325 615.164 423.694C615.794 423.064 616.147 422.209 616.147 421.318C616.147 420.427 615.794 419.572 615.164 418.942C614.535 418.312 613.681 417.957 612.791 417.957H526.636C522.307 417.897 522.264 424.74 526.636 424.679Z" fill="#E4E4E4"/>
<path d="M410.575 442.258H612.791C613.681 442.258 614.535 441.904 615.164 441.274C615.794 440.644 616.147 439.789 616.147 438.898C616.147 438.006 615.794 437.152 615.164 436.521C614.535 435.891 613.681 435.537 612.791 435.537H410.575C406.246 435.477 406.203 442.319 410.575 442.258Z" fill="#E4E4E4"/>
</g>
<defs>
<clipPath id="clip0_523_1174">
<rect width="753" height="502" fill="white" transform="matrix(-1 0 0 1 753 0)"/>
</clipPath>
</defs>
</svg>
