<svg width="785" height="572" viewBox="0 0 785 572" fill="none" xmlns="http://www.w3.org/2000/svg">
<g clip-path="url(#clip0_523_1001)">
<path d="M457.261 100.837C471.973 100.837 483.9 88.8885 483.9 74.1487C483.9 59.4089 471.973 47.46 457.261 47.46C442.549 47.46 430.622 59.4089 430.622 74.1487C430.622 88.8885 442.549 100.837 457.261 100.837Z" fill="#F2F2F2"/>
<path d="M663.909 496.928C703.505 466.713 722.417 415.939 710.577 367.504C710.283 366.301 709.972 365.1 709.645 363.902C701.796 335.152 682.377 307.827 654.074 298.64C630.31 290.927 604.37 296.858 579.578 293.791C530.909 287.77 493.177 248.318 466.628 207.011C440.079 165.704 419.675 119.467 384.397 85.3415C326.247 29.0915 231.39 16.9808 159.293 53.5954C87.195 90.2101 41.2697 171.443 43.2282 252.401C45.1869 333.36 93.1588 410.761 162.826 451.828C188.419 466.914 218.019 477.602 247.478 473.862C273.039 470.617 296.264 456.857 321.704 452.772C361.703 446.349 401.446 464.468 436.042 485.581C470.637 506.694 504.054 531.72 543.368 541.508C581.541 551.012 628.833 523.694 663.909 496.928Z" fill="#F2F2F2"/>
<path d="M607.019 55.2951C606.151 54.7154 605.273 54.1656 604.405 53.6058C579.314 37.5289 552.421 24.4681 524.281 14.6934L517.756 104.873H476.392V1.52931C473.788 0.989553 471.164 0.479784 468.54 0V104.873H419.384C392.323 104.873 366.37 94.1028 347.236 74.9321C328.101 55.7614 317.351 29.7604 317.351 2.64892V2.64883C314.717 3.21857 312.103 3.8283 309.489 4.47801V104.873H269.452L263.236 18.8815C234.318 29.9928 206.864 44.6047 181.486 62.3919C181.047 62.6918 180.608 63.0016 180.179 63.3015C177.974 64.8508 175.799 66.4301 173.634 68.0294V412.064H291.63L289.545 383.127L278.072 224.249H509.126L497.653 383.127L495.567 412.064H612.257V58.7735C610.521 57.5941 608.775 56.4346 607.019 55.2951ZM309.489 198.011H276.176L270.02 112.749H309.489V198.011ZM468.54 198.011H412.59V196.322C412.59 195.509 412.43 194.705 412.12 193.955C411.809 193.205 411.354 192.524 410.781 191.95C410.207 191.376 409.526 190.921 408.777 190.612C408.028 190.302 407.225 190.143 406.414 190.144H382.091C381.281 190.144 380.479 190.304 379.731 190.614C378.982 190.924 378.303 191.379 377.73 191.953C377.157 192.527 376.703 193.208 376.394 193.957C376.084 194.707 375.925 195.51 375.925 196.322V198.011H317.351V112.749H468.54V198.011ZM476.392 198.011V112.749H517.187L511.032 198.011H476.392Z" fill="#3F3D56"/>
<path d="M0 434.095C8.66716 444.384 18.0417 454.053 28.055 463.032L756.945 464.031C766.958 455.052 776.333 445.383 785 435.094L0 434.095Z" fill="#3F3D56"/>
<path d="M494.284 341.438V427.103C494.285 428.195 494.718 429.242 495.489 430.014C496.259 430.786 497.304 431.22 498.394 431.22H625.104C626.194 431.22 627.239 430.786 628.009 430.014C628.78 429.242 629.213 428.195 629.214 427.103V341.438C629.211 340.347 628.777 339.302 628.007 338.531C627.237 337.76 626.193 337.327 625.104 337.325H498.394C497.305 337.327 496.261 337.76 495.491 338.531C494.721 339.302 494.287 340.347 494.284 341.438V341.438Z" fill="#3F3D56"/>
<path d="M497.257 342.504V426.047C497.258 426.63 497.49 427.189 497.901 427.601C498.313 428.014 498.871 428.246 499.453 428.247H624.05C624.632 428.246 625.19 428.014 625.602 427.601C626.013 427.189 626.245 426.63 626.246 426.047V342.504C626.246 341.92 626.015 341.36 625.603 340.946C625.191 340.533 624.633 340.3 624.05 340.299H499.453C498.87 340.3 498.312 340.533 497.9 340.946C497.488 341.36 497.257 341.92 497.257 342.504V342.504Z" fill="#4933F0"/>
<path d="M491.634 443.81C491.866 444.101 492.161 444.337 492.497 444.497C492.832 444.658 493.2 444.741 493.573 444.739H629.25C629.621 444.739 629.987 444.655 630.322 444.495C630.657 444.335 630.952 444.102 631.186 443.814C631.42 443.525 631.586 443.188 631.673 442.826C631.761 442.465 631.766 442.089 631.69 441.725L629.584 431.702C629.497 431.294 629.309 430.913 629.037 430.596C628.766 430.278 628.42 430.034 628.03 429.885C627.747 429.774 627.447 429.717 627.144 429.718H495.67C495.367 429.717 495.067 429.774 494.784 429.885C494.395 430.034 494.048 430.278 493.777 430.596C493.505 430.913 493.317 431.293 493.23 431.702L491.124 441.725C491.049 442.089 491.056 442.464 491.144 442.825C491.232 443.186 491.399 443.522 491.634 443.81V443.81Z" fill="#2F2E41"/>
<path d="M622.489 434.035H625.694C625.963 434.035 626.181 433.817 626.181 433.547V432.011C626.181 431.742 625.963 431.523 625.694 431.523H622.489C622.22 431.523 622.002 431.742 622.002 432.011V433.547C622.002 433.817 622.22 434.035 622.489 434.035Z" fill="#3F3D56"/>
<path d="M614.131 434.035H617.336C617.605 434.035 617.823 433.817 617.823 433.547V432.011C617.823 431.742 617.605 431.523 617.336 431.523H614.131C613.863 431.523 613.644 431.742 613.644 432.011V433.547C613.644 433.817 613.863 434.035 614.131 434.035Z" fill="#3F3D56"/>
<path d="M605.773 434.035H608.978C609.247 434.035 609.465 433.817 609.465 433.547V432.011C609.465 431.742 609.247 431.523 608.978 431.523H605.773C605.504 431.523 605.286 431.742 605.286 432.011V433.547C605.286 433.817 605.504 434.035 605.773 434.035Z" fill="#3F3D56"/>
<path d="M597.416 434.035H600.62C600.889 434.035 601.107 433.817 601.107 433.547V432.011C601.107 431.742 600.889 431.523 600.62 431.523H597.416C597.147 431.523 596.929 431.742 596.929 432.011V433.547C596.929 433.817 597.147 434.035 597.416 434.035Z" fill="#3F3D56"/>
<path d="M589.058 434.035H592.263C592.532 434.035 592.75 433.817 592.75 433.547V432.011C592.75 431.742 592.532 431.523 592.263 431.523H589.058C588.789 431.523 588.571 431.742 588.571 432.011V433.547C588.571 433.817 588.789 434.035 589.058 434.035Z" fill="#3F3D56"/>
<path d="M580.701 434.035H583.905C584.174 434.035 584.393 433.817 584.393 433.547V432.011C584.393 431.742 584.174 431.523 583.905 431.523H580.701C580.432 431.523 580.214 431.742 580.214 432.011V433.547C580.214 433.817 580.432 434.035 580.701 434.035Z" fill="#3F3D56"/>
<path d="M572.343 434.035H575.548C575.817 434.035 576.035 433.817 576.035 433.547V432.011C576.035 431.742 575.817 431.523 575.548 431.523H572.343C572.074 431.523 571.856 431.742 571.856 432.011V433.547C571.856 433.817 572.074 434.035 572.343 434.035Z" fill="#3F3D56"/>
<path d="M563.986 434.035H567.191C567.46 434.035 567.678 433.817 567.678 433.547V432.011C567.678 431.742 567.46 431.523 567.191 431.523H563.986C563.717 431.523 563.499 431.742 563.499 432.011V433.547C563.499 433.817 563.717 434.035 563.986 434.035Z" fill="#3F3D56"/>
<path d="M555.628 434.035H558.832C559.101 434.035 559.319 433.817 559.319 433.547V432.011C559.319 431.742 559.101 431.523 558.832 431.523H555.628C555.359 431.523 555.141 431.742 555.141 432.011V433.547C555.141 433.817 555.359 434.035 555.628 434.035Z" fill="#3F3D56"/>
<path d="M547.27 434.035H550.475C550.744 434.035 550.962 433.817 550.962 433.547V432.011C550.962 431.742 550.744 431.523 550.475 431.523H547.27C547.001 431.523 546.783 431.742 546.783 432.011V433.547C546.783 433.817 547.001 434.035 547.27 434.035Z" fill="#3F3D56"/>
<path d="M538.913 434.035H542.117C542.386 434.035 542.604 433.817 542.604 433.547V432.011C542.604 431.742 542.386 431.523 542.117 431.523H538.913C538.644 431.523 538.426 431.742 538.426 432.011V433.547C538.426 433.817 538.644 434.035 538.913 434.035Z" fill="#3F3D56"/>
<path d="M530.555 434.035H533.76C534.029 434.035 534.247 433.817 534.247 433.547V432.011C534.247 431.742 534.029 431.523 533.76 431.523H530.555C530.286 431.523 530.068 431.742 530.068 432.011V433.547C530.068 433.817 530.286 434.035 530.555 434.035Z" fill="#3F3D56"/>
<path d="M522.198 434.035H525.403C525.672 434.035 525.89 433.817 525.89 433.547V432.011C525.89 431.742 525.672 431.523 525.403 431.523H522.198C521.929 431.523 521.711 431.742 521.711 432.011V433.547C521.711 433.817 521.929 434.035 522.198 434.035Z" fill="#3F3D56"/>
<path d="M513.839 434.035H517.044C517.313 434.035 517.531 433.817 517.531 433.547V432.011C517.531 431.742 517.313 431.523 517.044 431.523H513.839C513.57 431.523 513.352 431.742 513.352 432.011V433.547C513.352 433.817 513.57 434.035 513.839 434.035Z" fill="#3F3D56"/>
<path d="M505.482 434.035H508.687C508.956 434.035 509.174 433.817 509.174 433.547V432.011C509.174 431.742 508.956 431.523 508.687 431.523H505.482C505.213 431.523 504.995 431.742 504.995 432.011V433.547C504.995 433.817 505.213 434.035 505.482 434.035Z" fill="#3F3D56"/>
<path d="M497.125 434.035H500.329C500.598 434.035 500.816 433.817 500.816 433.547V432.011C500.816 431.742 500.598 431.523 500.329 431.523H497.125C496.856 431.523 496.638 431.742 496.638 432.011V433.547C496.638 433.817 496.856 434.035 497.125 434.035Z" fill="#3F3D56"/>
<path d="M622.588 438.222H625.792C626.061 438.222 626.279 438.003 626.279 437.734V436.198C626.279 435.928 626.061 435.71 625.792 435.71H622.588C622.319 435.71 622.101 435.928 622.101 436.198V437.734C622.101 438.003 622.319 438.222 622.588 438.222Z" fill="#3F3D56"/>
<path d="M614.23 438.222H617.435C617.704 438.222 617.922 438.003 617.922 437.734V436.198C617.922 435.928 617.704 435.71 617.435 435.71H614.23C613.961 435.71 613.743 435.928 613.743 436.198V437.734C613.743 438.003 613.961 438.222 614.23 438.222Z" fill="#3F3D56"/>
<path d="M605.873 438.222H609.077C609.346 438.222 609.564 438.003 609.564 437.734V436.198C609.564 435.928 609.346 435.71 609.077 435.71H605.873C605.604 435.71 605.386 435.928 605.386 436.198V437.734C605.386 438.003 605.604 438.222 605.873 438.222Z" fill="#3F3D56"/>
<path d="M597.514 438.222H600.719C600.988 438.222 601.206 438.003 601.206 437.734V436.198C601.206 435.928 600.988 435.71 600.719 435.71H597.514C597.245 435.71 597.027 435.928 597.027 436.198V437.734C597.027 438.003 597.245 438.222 597.514 438.222Z" fill="#3F3D56"/>
<path d="M589.157 438.222H592.362C592.631 438.222 592.849 438.003 592.849 437.734V436.198C592.849 435.928 592.631 435.71 592.362 435.71H589.157C588.888 435.71 588.67 435.928 588.67 436.198V437.734C588.67 438.003 588.888 438.222 589.157 438.222Z" fill="#3F3D56"/>
<path d="M580.799 438.222H584.004C584.273 438.222 584.491 438.003 584.491 437.734V436.198C584.491 435.928 584.273 435.71 584.004 435.71H580.799C580.53 435.71 580.312 435.928 580.312 436.198V437.734C580.312 438.003 580.53 438.222 580.799 438.222Z" fill="#3F3D56"/>
<path d="M572.442 438.222H575.647C575.916 438.222 576.134 438.003 576.134 437.734V436.198C576.134 435.928 575.916 435.71 575.647 435.71H572.442C572.173 435.71 571.955 435.928 571.955 436.198V437.734C571.955 438.003 572.173 438.222 572.442 438.222Z" fill="#3F3D56"/>
<path d="M564.085 438.222H567.289C567.558 438.222 567.776 438.003 567.776 437.734V436.198C567.776 435.928 567.558 435.71 567.289 435.71H564.085C563.816 435.71 563.598 435.928 563.598 436.198V437.734C563.598 438.003 563.816 438.222 564.085 438.222Z" fill="#3F3D56"/>
<path d="M555.726 438.222H558.931C559.2 438.222 559.418 438.003 559.418 437.734V436.198C559.418 435.928 559.2 435.71 558.931 435.71H555.726C555.457 435.71 555.239 435.928 555.239 436.198V437.734C555.239 438.003 555.457 438.222 555.726 438.222Z" fill="#3F3D56"/>
<path d="M547.369 438.222H550.573C550.842 438.222 551.061 438.003 551.061 437.734V436.198C551.061 435.928 550.842 435.71 550.573 435.71H547.369C547.1 435.71 546.882 435.928 546.882 436.198V437.734C546.882 438.003 547.1 438.222 547.369 438.222Z" fill="#3F3D56"/>
<path d="M539.011 438.222H542.216C542.485 438.222 542.703 438.003 542.703 437.734V436.198C542.703 435.928 542.485 435.71 542.216 435.71H539.011C538.742 435.71 538.524 435.928 538.524 436.198V437.734C538.524 438.003 538.742 438.222 539.011 438.222Z" fill="#3F3D56"/>
<path d="M530.654 438.222H533.859C534.128 438.222 534.346 438.003 534.346 437.734V436.198C534.346 435.928 534.128 435.71 533.859 435.71H530.654C530.385 435.71 530.167 435.928 530.167 436.198V437.734C530.167 438.003 530.385 438.222 530.654 438.222Z" fill="#3F3D56"/>
<path d="M522.297 438.222H525.501C525.77 438.222 525.988 438.003 525.988 437.734V436.198C525.988 435.928 525.77 435.71 525.501 435.71H522.297C522.028 435.71 521.81 435.928 521.81 436.198V437.734C521.81 438.003 522.028 438.222 522.297 438.222Z" fill="#3F3D56"/>
<path d="M513.939 438.222H517.144C517.413 438.222 517.631 438.003 517.631 437.734V436.198C517.631 435.928 517.413 435.71 517.144 435.71H513.939C513.67 435.71 513.452 435.928 513.452 436.198V437.734C513.452 438.003 513.67 438.222 513.939 438.222Z" fill="#3F3D56"/>
<path d="M505.581 438.222H508.785C509.054 438.222 509.272 438.003 509.272 437.734V436.198C509.272 435.928 509.054 435.71 508.785 435.71H505.581C505.312 435.71 505.094 435.928 505.094 436.198V437.734C505.094 438.003 505.312 438.222 505.581 438.222Z" fill="#3F3D56"/>
<path d="M497.223 438.222H500.428C500.697 438.222 500.915 438.003 500.915 437.734V436.198C500.915 435.928 500.697 435.71 500.428 435.71H497.223C496.954 435.71 496.736 435.928 496.736 436.198V437.734C496.736 438.003 496.954 438.222 497.223 438.222Z" fill="#3F3D56"/>
<path d="M553.22 443.245H585.676C585.945 443.245 586.163 443.027 586.163 442.757V441.221C586.163 440.952 585.945 440.733 585.676 440.733H553.22C552.951 440.733 552.733 440.952 552.733 441.221V442.757C552.733 443.027 552.951 443.245 553.22 443.245Z" fill="#3F3D56"/>
<path d="M518.833 358.575H515.996C515.136 358.575 514.438 359.274 514.438 360.136C514.438 360.997 515.136 361.696 515.996 361.696H518.833C519.693 361.696 520.391 360.997 520.391 360.136C520.391 359.274 519.693 358.575 518.833 358.575Z" fill="white"/>
<path d="M551.28 358.575H548.443C547.583 358.575 546.886 359.274 546.886 360.136C546.886 360.997 547.583 361.696 548.443 361.696H551.28C552.141 361.696 552.838 360.997 552.838 360.136C552.838 359.274 552.141 358.575 551.28 358.575Z" fill="white"/>
<path d="M560.475 358.575H557.638C556.777 358.575 556.08 359.274 556.08 360.136C556.08 360.997 556.777 361.696 557.638 361.696H560.475C561.335 361.696 562.032 360.997 562.032 360.136C562.032 359.274 561.335 358.575 560.475 358.575Z" fill="white"/>
<path d="M542.455 358.315H524.822C523.962 358.315 523.265 359.014 523.265 359.876C523.265 360.738 523.962 361.436 524.822 361.436H542.455C543.315 361.436 544.013 360.738 544.013 359.876C544.013 359.014 543.315 358.315 542.455 358.315Z" fill="white"/>
<path d="M585.719 358.315H568.086C567.226 358.315 566.528 359.014 566.528 359.876C566.528 360.738 567.226 361.436 568.086 361.436H585.719C586.579 361.436 587.276 360.738 587.276 359.876C587.276 359.014 586.579 358.315 585.719 358.315Z" fill="white"/>
<path d="M527.485 365.619H524.648C523.788 365.619 523.091 366.318 523.091 367.18C523.091 368.041 523.788 368.74 524.648 368.74H527.485C528.346 368.74 529.043 368.041 529.043 367.18C529.043 366.318 528.346 365.619 527.485 365.619Z" fill="white"/>
<path d="M559.934 365.619H557.097C556.236 365.619 555.539 366.318 555.539 367.18C555.539 368.041 556.236 368.74 557.097 368.74H559.934C560.794 368.74 561.491 368.041 561.491 367.18C561.491 366.318 560.794 365.619 559.934 365.619Z" fill="white"/>
<path d="M569.127 365.619H566.29C565.43 365.619 564.732 366.318 564.732 367.18C564.732 368.041 565.43 368.74 566.29 368.74H569.127C569.987 368.74 570.684 368.041 570.684 367.18C570.684 366.318 569.987 365.619 569.127 365.619Z" fill="white"/>
<path d="M551.108 365.358H533.474C532.614 365.358 531.917 366.057 531.917 366.919C531.917 367.781 532.614 368.479 533.474 368.479H551.108C551.968 368.479 552.665 367.781 552.665 366.919C552.665 366.057 551.968 365.358 551.108 365.358Z" fill="white"/>
<path d="M594.371 365.358H576.738C575.878 365.358 575.181 366.057 575.181 366.919C575.181 367.781 575.878 368.479 576.738 368.479H594.371C595.231 368.479 595.929 367.781 595.929 366.919C595.929 366.057 595.231 365.358 594.371 365.358Z" fill="white"/>
<path d="M536.139 372.662H533.302C532.441 372.662 531.744 373.361 531.744 374.222C531.744 375.084 532.441 375.783 533.302 375.783H536.139C536.999 375.783 537.696 375.084 537.696 374.222C537.696 373.361 536.999 372.662 536.139 372.662Z" fill="white"/>
<path d="M568.586 372.662H565.749C564.889 372.662 564.191 373.361 564.191 374.222C564.191 375.084 564.889 375.783 565.749 375.783H568.586C569.446 375.783 570.143 375.084 570.143 374.222C570.143 373.361 569.446 372.662 568.586 372.662Z" fill="white"/>
<path d="M577.779 372.662H574.942C574.082 372.662 573.385 373.361 573.385 374.222C573.385 375.084 574.082 375.783 574.942 375.783H577.779C578.639 375.783 579.337 375.084 579.337 374.222C579.337 373.361 578.639 372.662 577.779 372.662Z" fill="white"/>
<path d="M559.761 372.402H542.128C541.268 372.402 540.57 373.101 540.57 373.963C540.57 374.825 541.268 375.523 542.128 375.523H559.761C560.621 375.523 561.318 374.825 561.318 373.963C561.318 373.101 560.621 372.402 559.761 372.402Z" fill="white"/>
<path d="M603.024 372.402H585.39C584.53 372.402 583.833 373.101 583.833 373.963C583.833 374.825 584.53 375.523 585.39 375.523H603.024C603.884 375.523 604.581 374.825 604.581 373.963C604.581 373.101 603.884 372.402 603.024 372.402Z" fill="white"/>
<path d="M544.791 379.706H541.954C541.094 379.706 540.396 380.405 540.396 381.266C540.396 382.128 541.094 382.827 541.954 382.827H544.791C545.651 382.827 546.349 382.128 546.349 381.266C546.349 380.405 545.651 379.706 544.791 379.706Z" fill="white"/>
<path d="M577.239 379.706H574.402C573.542 379.706 572.845 380.405 572.845 381.266C572.845 382.128 573.542 382.827 574.402 382.827H577.239C578.099 382.827 578.797 382.128 578.797 381.266C578.797 380.405 578.099 379.706 577.239 379.706Z" fill="white"/>
<path d="M586.433 379.706H583.596C582.735 379.706 582.038 380.405 582.038 381.266C582.038 382.128 582.735 382.827 583.596 382.827H586.433C587.293 382.827 587.99 382.128 587.99 381.266C587.99 380.405 587.293 379.706 586.433 379.706Z" fill="white"/>
<path d="M568.413 379.445H550.78C549.92 379.445 549.223 380.144 549.223 381.006C549.223 381.867 549.92 382.566 550.78 382.566H568.413C569.273 382.566 569.971 381.867 569.971 381.006C569.971 380.144 569.273 379.445 568.413 379.445Z" fill="white"/>
<path d="M551.28 407.714H548.443C547.583 407.714 546.886 408.412 546.886 409.274C546.886 410.136 547.583 410.835 548.443 410.835H551.28C552.141 410.835 552.838 410.136 552.838 409.274C552.838 408.412 552.141 407.714 551.28 407.714Z" fill="white"/>
<path d="M560.475 407.714H557.638C556.777 407.714 556.08 408.412 556.08 409.274C556.08 410.136 556.777 410.835 557.638 410.835H560.475C561.335 410.835 562.032 410.136 562.032 409.274C562.032 408.412 561.335 407.714 560.475 407.714Z" fill="white"/>
<path d="M585.719 407.974H568.086C567.226 407.974 566.528 408.672 566.528 409.534C566.528 410.396 567.226 411.094 568.086 411.094H585.719C586.579 411.094 587.276 410.396 587.276 409.534C587.276 408.672 586.579 407.974 585.719 407.974Z" fill="white"/>
<path d="M518.833 407.714H515.996C515.136 407.714 514.438 408.412 514.438 409.274C514.438 410.136 515.136 410.835 515.996 410.835H518.833C519.693 410.835 520.391 410.136 520.391 409.274C520.391 408.412 519.693 407.714 518.833 407.714Z" fill="white"/>
<path d="M542.455 407.974H524.822C523.962 407.974 523.265 408.672 523.265 409.534C523.265 410.396 523.962 411.094 524.822 411.094H542.455C543.315 411.094 544.013 410.396 544.013 409.534C544.013 408.672 543.315 407.974 542.455 407.974Z" fill="white"/>
<path d="M527.485 400.67H524.648C523.788 400.67 523.091 401.369 523.091 402.23C523.091 403.092 523.788 403.791 524.648 403.791H527.485C528.346 403.791 529.043 403.092 529.043 402.23C529.043 401.369 528.346 400.67 527.485 400.67Z" fill="white"/>
<path d="M559.934 400.67H557.097C556.236 400.67 555.539 401.369 555.539 402.23C555.539 403.092 556.236 403.791 557.097 403.791H559.934C560.794 403.791 561.491 403.092 561.491 402.23C561.491 401.369 560.794 400.67 559.934 400.67Z" fill="white"/>
<path d="M569.127 400.67H566.29C565.43 400.67 564.732 401.369 564.732 402.23C564.732 403.092 565.43 403.791 566.29 403.791H569.127C569.987 403.791 570.684 403.092 570.684 402.23C570.684 401.369 569.987 400.67 569.127 400.67Z" fill="white"/>
<path d="M551.108 400.931H533.474C532.614 400.931 531.917 401.629 531.917 402.491C531.917 403.353 532.614 404.051 533.474 404.051H551.108C551.968 404.051 552.665 403.353 552.665 402.491C552.665 401.629 551.968 400.931 551.108 400.931Z" fill="white"/>
<path d="M536.139 393.627H533.302C532.441 393.627 531.744 394.326 531.744 395.187C531.744 396.049 532.441 396.748 533.302 396.748H536.139C536.999 396.748 537.696 396.049 537.696 395.187C537.696 394.326 536.999 393.627 536.139 393.627Z" fill="white"/>
<path d="M568.586 393.627H565.749C564.889 393.627 564.191 394.326 564.191 395.187C564.191 396.049 564.889 396.748 565.749 396.748H568.586C569.446 396.748 570.143 396.049 570.143 395.187C570.143 394.326 569.446 393.627 568.586 393.627Z" fill="white"/>
<path d="M577.779 393.627H574.942C574.082 393.627 573.385 394.326 573.385 395.187C573.385 396.049 574.082 396.748 574.942 396.748H577.779C578.639 396.748 579.337 396.049 579.337 395.187C579.337 394.326 578.639 393.627 577.779 393.627Z" fill="white"/>
<path d="M559.761 393.887H542.128C541.268 393.887 540.57 394.585 540.57 395.447C540.57 396.309 541.268 397.007 542.128 397.007H559.761C560.621 397.007 561.318 396.309 561.318 395.447C561.318 394.585 560.621 393.887 559.761 393.887Z" fill="white"/>
<path d="M544.791 386.583H541.954C541.094 386.583 540.396 387.282 540.396 388.143C540.396 389.005 541.094 389.704 541.954 389.704H544.791C545.651 389.704 546.349 389.005 546.349 388.143C546.349 387.282 545.651 386.583 544.791 386.583Z" fill="white"/>
<path d="M577.239 386.583H574.402C573.542 386.583 572.845 387.282 572.845 388.143C572.845 389.005 573.542 389.704 574.402 389.704H577.239C578.099 389.704 578.797 389.005 578.797 388.143C578.797 387.282 578.099 386.583 577.239 386.583Z" fill="white"/>
<path d="M586.433 386.583H583.596C582.735 386.583 582.038 387.282 582.038 388.143C582.038 389.005 582.735 389.704 583.596 389.704H586.433C587.293 389.704 587.99 389.005 587.99 388.143C587.99 387.282 587.293 386.583 586.433 386.583Z" fill="white"/>
<path d="M568.413 386.844H550.78C549.92 386.844 549.223 387.542 549.223 388.404C549.223 389.266 549.92 389.965 550.78 389.965H568.413C569.273 389.965 569.971 389.266 569.971 388.404C569.971 387.542 569.273 386.844 568.413 386.844Z" fill="white"/>
<path d="M503.749 490.26L490.431 469.168L532.236 435.781L549.491 416.628C551.733 414.14 554.587 412.285 557.769 411.248C560.951 410.211 564.348 410.029 567.622 410.72C570.896 411.411 573.932 412.95 576.425 415.185C578.919 417.419 580.784 420.27 581.834 423.453C583.389 428.17 583.055 433.307 580.901 437.781C578.747 442.255 574.943 445.716 570.291 447.433L543.005 457.504L503.749 490.26Z" fill="#FFB6B6"/>
<path d="M191.246 337.329V439.842H262.93V337.329C262.931 336.591 262.696 335.873 262.26 335.279C261.824 334.686 261.209 334.248 260.505 334.03C260.174 333.921 259.827 333.867 259.478 333.87H194.708C194.254 333.869 193.804 333.958 193.384 334.132C192.965 334.305 192.583 334.559 192.262 334.881C191.94 335.202 191.685 335.583 191.511 336.003C191.336 336.423 191.247 336.874 191.246 337.329V337.329ZM219.221 372.553C219.24 370.532 220.054 368.6 221.487 367.178C222.92 365.755 224.856 364.957 226.873 364.957C228.891 364.957 230.826 365.755 232.26 367.178C233.693 368.6 234.507 370.532 234.526 372.553V384.447C234.515 386.474 233.705 388.414 232.271 389.843C230.837 391.273 228.896 392.075 226.873 392.075C224.851 392.075 222.91 391.273 221.476 389.843C220.042 388.414 219.232 386.474 219.221 384.447V372.553Z" fill="#2F2E41"/>
<path d="M191.027 436.564V446.45C191.029 446.962 191.232 447.453 191.593 447.816C191.953 448.179 192.442 448.385 192.953 448.389H261.225C261.736 448.387 262.226 448.181 262.587 447.818C262.948 447.454 263.15 446.963 263.15 446.45V436.564H191.027Z" fill="#3F3D56"/>
<path d="M78.4785 182.879V370.054C78.4804 372.439 79.427 374.726 81.1105 376.413C82.7941 378.1 85.0768 379.048 87.4577 379.05H364.316C366.697 379.048 368.979 378.1 370.663 376.413C372.347 374.726 373.293 372.439 373.295 370.054V182.879C373.289 180.495 372.341 178.211 370.658 176.527C368.975 174.843 366.695 173.896 364.316 173.893H87.4577C85.0789 173.896 82.7983 174.843 81.1153 176.527C79.4323 178.212 78.4842 180.495 78.4785 182.879Z" fill="#3F3D56"/>
<path d="M84.9727 185.207V367.745C84.9749 369.02 85.4811 370.241 86.3806 371.142C87.2801 372.044 88.4995 372.551 89.7715 372.553H362.01C363.282 372.551 364.502 372.044 365.401 371.142C366.301 370.241 366.807 369.02 366.809 367.745V185.207C366.809 183.931 366.304 182.708 365.404 181.804C364.505 180.901 363.284 180.392 362.01 180.39H89.7715C88.4979 180.392 87.2774 180.901 86.3778 181.804C85.4781 182.708 84.9728 183.931 84.9727 185.207Z" fill="white"/>
<path d="M135.496 447.719C135.773 448.067 136.126 448.348 136.526 448.54C136.927 448.732 137.366 448.831 137.811 448.828H299.775C300.218 448.828 300.656 448.728 301.055 448.537C301.455 448.346 301.807 448.068 302.086 447.723C302.365 447.379 302.564 446.976 302.668 446.545C302.773 446.114 302.779 445.664 302.689 445.23L300.174 433.265C300.07 432.777 299.846 432.323 299.522 431.945C299.198 431.566 298.784 431.274 298.319 431.096C297.982 430.964 297.623 430.896 297.261 430.896H140.315C139.953 430.896 139.594 430.964 139.258 431.096C138.792 431.274 138.379 431.566 138.055 431.945C137.73 432.323 137.506 432.777 137.402 433.265L134.888 445.23C134.798 445.664 134.806 446.113 134.912 446.543C135.017 446.974 135.217 447.375 135.496 447.719Z" fill="#2F2E41"/>
<path d="M353.176 205.535H98.4429C98.1781 205.529 97.9262 205.419 97.741 205.23C97.5558 205.04 97.4521 204.785 97.4521 204.52C97.4521 204.254 97.5558 204 97.741 203.81C97.9262 203.62 98.1781 203.511 98.4429 203.505H353.176C353.441 203.511 353.692 203.62 353.878 203.81C354.063 204 354.166 204.254 354.166 204.52C354.166 204.785 354.063 205.04 353.878 205.23C353.692 205.419 353.441 205.529 353.176 205.535V205.535Z" fill="#3F3D56"/>
<path d="M115.783 198.324C119.062 198.324 121.72 195.601 121.72 192.243C121.72 188.885 119.062 186.163 115.783 186.163C112.505 186.163 109.847 188.885 109.847 192.243C109.847 195.601 112.505 198.324 115.783 198.324Z" fill="#3F3D56"/>
<path d="M136.291 198.324C139.57 198.324 142.228 195.601 142.228 192.243C142.228 188.885 139.57 186.163 136.291 186.163C133.012 186.163 130.354 188.885 130.354 192.243C130.354 195.601 133.012 198.324 136.291 198.324Z" fill="#3F3D56"/>
<path d="M156.8 198.324C160.079 198.324 162.737 195.601 162.737 192.243C162.737 188.885 160.079 186.163 156.8 186.163C153.521 186.163 150.863 188.885 150.863 192.243C150.863 195.601 153.521 198.324 156.8 198.324Z" fill="#3F3D56"/>
<path d="M340.826 187.666H326.26C325.972 187.673 325.698 187.792 325.497 187.998C325.295 188.205 325.183 188.482 325.183 188.771C325.183 189.059 325.295 189.336 325.497 189.543C325.698 189.749 325.972 189.868 326.26 189.875H340.826C341.116 189.871 341.392 189.753 341.596 189.546C341.799 189.339 341.913 189.061 341.913 188.771C341.913 188.48 341.799 188.202 341.596 187.995C341.392 187.788 341.116 187.67 340.826 187.666Z" fill="#3F3D56"/>
<path d="M340.826 191.814H326.26C325.972 191.821 325.698 191.94 325.496 192.146C325.294 192.353 325.182 192.63 325.182 192.919C325.182 193.208 325.294 193.485 325.496 193.691C325.698 193.898 325.972 194.017 326.26 194.023H340.826C341.116 194.02 341.393 193.902 341.597 193.695C341.801 193.489 341.915 193.21 341.915 192.919C341.915 192.628 341.801 192.349 341.597 192.143C341.393 191.936 341.116 191.818 340.826 191.814V191.814Z" fill="#3F3D56"/>
<path d="M340.826 195.963H326.26C325.972 195.97 325.698 196.089 325.497 196.295C325.295 196.502 325.183 196.779 325.183 197.067C325.183 197.356 325.295 197.633 325.497 197.839C325.698 198.046 325.972 198.165 326.26 198.172H340.826C341.116 198.168 341.392 198.05 341.596 197.843C341.799 197.636 341.913 197.358 341.913 197.067C341.913 196.777 341.799 196.499 341.596 196.292C341.392 196.085 341.116 195.967 340.826 195.963V195.963Z" fill="#3F3D56"/>
<path d="M691.991 440.903C692.43 442.185 693.264 443.294 694.373 444.072C695.481 444.85 696.807 445.256 698.16 445.232L724.59 444.55C725.953 444.524 727.271 444.056 728.346 443.217C729.422 442.378 730.198 441.213 730.557 439.895L734.297 399.826C735.624 400.428 737.069 400.726 738.526 400.697C739.791 400.665 741.038 400.384 742.195 399.869C743.352 399.354 744.396 398.617 745.268 397.698C746.141 396.779 746.824 395.697 747.279 394.513C747.734 393.33 747.951 392.068 747.92 390.8C747.888 389.532 747.607 388.283 747.094 387.124C746.58 385.965 745.844 384.919 744.926 384.045C744.009 383.171 742.929 382.487 741.748 382.031C740.567 381.575 739.307 381.357 738.042 381.389C737.46 381.387 736.879 381.447 736.31 381.569C735.691 380.898 734.938 380.364 734.1 380.002C733.263 379.64 732.359 379.458 731.447 379.467L690.791 380.519C690.453 380.531 690.118 380.573 689.788 380.644C688.896 380.81 688.051 381.166 687.308 381.688C686.565 382.209 685.942 382.884 685.482 383.666C685.021 384.449 684.733 385.322 684.637 386.225C684.541 387.129 684.64 388.042 684.926 388.905L691.991 440.903ZM735.064 397.106L737.726 387.557C738.029 386.454 738.036 385.291 737.746 384.184C737.875 384.184 737.989 384.122 738.118 384.122C739.943 384.084 741.709 384.773 743.028 386.037C744.346 387.302 745.111 389.038 745.154 390.866C745.196 392.694 744.514 394.465 743.255 395.79C741.997 397.114 740.266 397.885 738.441 397.933C737.262 397.97 736.094 397.684 735.064 397.106Z" fill="#2F2E41"/>
<path d="M689.788 380.644C690.654 385.606 700.393 389.094 712.102 388.488C722.87 387.991 731.674 384.203 733.287 379.713C732.69 379.536 732.07 379.453 731.447 379.467L690.791 380.519C690.454 380.532 690.118 380.573 689.788 380.644V380.644Z" fill="#3F3D56"/>
<path d="M714.248 418.884C714.302 418.87 714.353 418.848 714.399 418.817L720.139 415.053C720.208 415.008 720.265 414.946 720.305 414.873C720.344 414.8 720.365 414.719 720.365 414.636C720.365 414.553 720.344 414.471 720.305 414.398C720.265 414.325 720.208 414.263 720.139 414.218L714.173 410.303C714.118 410.266 714.057 410.241 713.993 410.229C713.928 410.216 713.862 410.217 713.797 410.23C713.733 410.243 713.672 410.269 713.618 410.306C713.563 410.343 713.517 410.39 713.481 410.445C713.445 410.5 713.42 410.562 713.408 410.627C713.396 410.691 713.397 410.758 713.41 410.822C713.424 410.886 713.45 410.947 713.487 411.002C713.524 411.056 713.571 411.102 713.626 411.138L718.955 414.635L713.853 417.981C713.754 418.046 713.681 418.144 713.648 418.257C713.614 418.37 713.622 418.492 713.669 418.6C713.717 418.709 713.801 418.796 713.907 418.848C714.013 418.9 714.134 418.913 714.248 418.884H714.248Z" fill="#6C63FF"/>
<path d="M705.182 419.304C705.279 419.279 705.365 419.226 705.432 419.152C705.498 419.078 705.541 418.986 705.554 418.887C705.568 418.788 705.551 418.688 705.507 418.599C705.464 418.509 705.394 418.435 705.308 418.385L700.017 415.346L705.131 411.541C705.184 411.502 705.228 411.453 705.261 411.396C705.295 411.34 705.317 411.278 705.327 411.213C705.336 411.148 705.333 411.082 705.317 411.018C705.301 410.955 705.273 410.895 705.234 410.842C705.195 410.79 705.146 410.745 705.09 410.711C705.033 410.678 704.971 410.656 704.906 410.646C704.842 410.636 704.776 410.64 704.712 410.656C704.649 410.672 704.589 410.7 704.536 410.739L698.811 415C698.744 415.049 698.691 415.115 698.656 415.19C698.621 415.265 698.605 415.348 698.61 415.43C698.615 415.513 698.641 415.594 698.684 415.664C698.728 415.735 698.788 415.793 698.86 415.834L704.812 419.253C704.924 419.317 705.057 419.335 705.182 419.304V419.304Z" fill="#6C63FF"/>
<path d="M713.678 422.183C713.726 422.171 713.772 422.151 713.814 422.125C713.87 422.091 713.919 422.046 713.958 421.993C713.996 421.94 714.024 421.88 714.04 421.816C714.055 421.753 714.058 421.686 714.048 421.621C714.038 421.557 714.015 421.494 713.981 421.438L705.845 408.036C705.776 407.923 705.665 407.842 705.536 407.811C705.408 407.78 705.272 407.801 705.159 407.87C705.046 407.939 704.965 408.05 704.934 408.179C704.903 408.307 704.924 408.443 704.992 408.556L713.129 421.959C713.184 422.05 713.268 422.121 713.366 422.161C713.465 422.201 713.574 422.209 713.678 422.183Z" fill="#6C63FF"/>
<path d="M256.246 260.71H212.157C210.358 260.71 208.9 262.171 208.9 263.973V268.288C208.9 270.09 210.358 271.551 212.157 271.551H256.246C258.044 271.551 259.502 270.09 259.502 268.288V263.973C259.502 262.171 258.044 260.71 256.246 260.71Z" fill="#339AF0"/>
<path d="M281.944 282.392H186.458C184.659 282.392 183.201 283.852 183.201 285.654V289.97C183.201 291.772 184.659 293.232 186.458 293.232H281.944C283.743 293.232 285.201 291.772 285.201 289.97V285.654C285.201 283.852 283.743 282.392 281.944 282.392Z" fill="#E6E6E6"/>
<path d="M281.944 304.073H186.458C184.659 304.073 183.201 305.534 183.201 307.336V311.651C183.201 313.453 184.659 314.914 186.458 314.914H281.944C283.743 314.914 285.201 313.453 285.201 311.651V307.336C285.201 305.534 283.743 304.073 281.944 304.073Z" fill="#E6E6E6"/>
<path d="M290.039 376.676L290.255 377.36L290.267 377.383L296.777 397.212L304.266 420.063L318.356 463.005L318.492 469.675V469.698L319.539 523.358L316.637 530.633L319.904 542.56C319.904 542.56 318.401 524.531 310.343 534.885C305.779 540.768 300.442 546.789 296.06 552.433C302.445 555.022 308.932 557.363 315.522 559.457C316.944 559.913 318.378 560.346 319.813 560.78C320.12 560.871 320.427 560.962 320.734 561.053C342.578 567.525 365.161 571.162 387.929 571.874C389.113 571.909 390.274 571.931 391.401 571.954C391.799 571.966 392.186 571.977 392.573 571.977C393.848 571.988 395.111 572 396.386 572C398.958 572 401.519 571.962 404.068 571.886C422.938 571.353 441.697 568.811 460.03 564.303C459.905 556.72 459.563 547.861 459.074 538.397C458.846 533.756 453.736 528.727 453.429 523.87C453.212 520.221 457.799 516.789 457.56 513.083C456.012 490.266 454.077 499.025 452.643 482.868C452.495 481.283 452.359 479.766 452.234 478.318C451.312 467.942 450.674 461.454 450.674 461.454L456.798 422.788L466.415 362.081L465.675 360.861L464.844 360.45L414.118 335.296L411.364 328.227C410.561 326.19 409.169 324.44 407.366 323.203C405.563 321.965 403.431 321.296 401.246 321.282L367.83 321.146C366.096 321.138 364.385 321.544 362.839 322.332C361.293 323.119 359.957 324.264 358.941 325.672L349.893 338.227L290.039 376.676Z" fill="#3F3D56"/>
<path d="M326.06 453.449L318.492 469.675L313.325 480.758L304.436 527.383L299.986 532.115L296.173 515.363L256.268 524.24C254.959 516.954 255.917 524.487 255.109 516.493C255.337 516.265 255.576 516.037 255.815 515.809C256.452 515.216 256.987 514.658 256.976 514.122C256.521 486.55 257.886 439.629 269.29 411.203C271.077 406.561 273.432 402.16 276.301 398.101C276.529 397.793 276.745 397.485 276.961 397.177C282.22 389.8 285.543 382.537 290.255 377.371V377.36C290.284 377.336 290.311 377.309 290.334 377.28C290.352 377.271 290.367 377.26 290.38 377.246L322.748 360.051L324.137 399.139L325.127 427.234L326.06 453.449Z" fill="#3F3D56"/>
<path d="M442.774 458.058L452.228 478.324L455.528 485.382L464.414 532.003L468.85 536.723L472.671 519.975L474.467 519.606L506.851 512.887L516.289 542.92C518.417 539.369 519.255 535.19 518.662 531.091C518.069 526.993 516.082 523.225 513.036 520.424C512.391 519.84 511.854 519.271 511.869 518.733C512.406 486.305 510.426 427.091 492.547 402.719C486.868 394.985 483.461 387.282 478.504 381.9C478.488 381.885 478.488 381.869 478.473 381.869L466.41 362.08L465.673 360.865L464.844 360.45L442.774 458.058Z" fill="#3F3D56"/>
<path d="M385.503 311.618C410.055 311.618 429.958 291.678 429.958 267.08C429.958 242.482 410.055 222.542 385.503 222.542C360.951 222.542 341.048 242.482 341.048 267.08C341.048 291.678 360.951 311.618 385.503 311.618Z" fill="#FFB6B6"/>
<path d="M445.589 235.971C445.245 235.602 444.829 235.306 444.368 235.102C443.907 234.898 443.41 234.789 442.905 234.781L443.574 232.922C443.792 232.336 443.851 231.703 443.744 231.087C443.638 230.471 443.37 229.895 442.968 229.417C442.566 228.939 442.044 228.577 441.457 228.367C440.869 228.157 440.236 228.108 439.623 228.224L437.189 228.694L437.418 227.065C437.506 226.458 437.435 225.839 437.211 225.268C436.988 224.697 436.62 224.194 436.144 223.809C435.668 223.423 435.1 223.169 434.496 223.07C433.892 222.972 433.273 223.032 432.699 223.246C432.177 223.452 431.616 223.538 431.057 223.499C430.497 223.459 429.954 223.294 429.466 223.017C428.977 222.747 428.552 222.375 428.221 221.924C427.89 221.473 427.662 220.956 427.551 220.408L426.703 216.31L426.613 216.09C422.483 209.193 414.541 204.175 404.824 202.336C396.174 200.687 387.304 201.526 378.754 202.316C375.362 202.636 371.531 202.995 368.338 204.955C365.624 206.634 363.33 209.992 363.799 213.381C355.368 210.792 346.329 215.96 341.85 222.477C336.542 230.233 335.674 239.949 335.534 247.545C335.155 265.517 338.857 280.221 346.509 291.256C347.068 292.055 347.207 293.725 348.315 294.284L348.085 293.915C349.322 294.534 350.579 295.534 350.11 296.603C348.764 299.682 357.713 306.489 364.018 308.738C375.522 312.846 390.816 312.496 401.571 311.017L401.95 308.468C405.831 307.938 408.565 306.929 409.333 305.349C410.69 304.19 411.847 303.15 412.855 302.191L412.865 302.181C412.885 302.161 412.925 302.131 412.945 302.111C417.803 297.443 418.931 294.784 419.44 290.736C419.929 286.768 419.061 282.74 418.173 279.111C436.869 282.01 410.81 259.16 428.229 254.742C428.429 254.681 428.632 254.63 428.838 254.592C429.347 254.472 429.856 254.352 430.344 254.212C432.701 253.572 434.957 252.606 437.049 251.344C441.918 248.375 443.524 244.437 446.038 239.999C446.401 239.367 446.553 238.636 446.472 237.911C446.391 237.187 446.082 236.507 445.589 235.971V235.971Z" fill="#2F2E41"/>
<path d="M542.734 461.229C542.724 462.978 542.704 465.427 542.624 468.456C542.614 468.876 542.604 469.305 542.595 469.745C542.465 475.313 542.335 479.98 542.126 485.168C542.116 485.528 542.106 485.878 542.086 486.238C541.806 493.474 541.367 501.901 540.609 515.245C539.202 539.894 536.748 518.633 534.284 527.279C534.164 527.709 534.034 528.219 533.915 528.819C533.541 530.994 532.912 533.118 532.039 535.146C530.732 535.925 529.385 536.675 528.058 537.425C524.277 539.534 520.436 541.563 516.565 543.492C514.39 544.571 512.205 545.631 510.01 546.65C509.661 546.81 509.322 546.97 508.982 547.12C497.743 552.329 486.159 556.757 474.313 560.374C471.998 561.074 469.694 561.754 467.359 562.383C464.925 563.063 462.49 563.703 460.026 564.303C441.694 568.812 422.935 571.355 404.066 571.889C401.522 571.969 398.958 571.999 396.384 571.999C395.107 571.999 393.849 571.989 392.572 571.979C392.183 571.979 391.794 571.969 391.405 571.959C390.278 571.929 389.11 571.909 387.933 571.879C365.165 571.168 342.582 567.53 320.739 561.054L319.811 560.784C318.374 560.344 316.948 559.914 315.521 559.455C308.936 557.366 302.448 555.027 296.056 552.438C291.177 550.469 286.355 548.356 281.59 546.101C281.546 546.089 281.505 546.069 281.47 546.041C280.472 545.581 279.465 545.101 278.467 544.611C278.337 544.541 278.198 544.471 278.058 544.401C274.336 542.582 270.655 540.677 267.013 538.684C263.951 531.637 259.641 530.288 256.967 524.091C256.189 522.249 255.626 520.324 255.291 518.353C255.291 518.333 255.281 518.313 255.281 518.283C255.56 522.002 254.093 511.686 255.271 518.243C255.261 518.123 255.251 517.993 255.241 517.843C255.211 517.484 255.171 517.044 255.111 516.494C251.689 483.019 251.909 444.736 250.422 413.191C250.322 411.152 250.219 409.199 250.113 407.333C250.083 406.714 250.043 406.104 250.003 405.504C250.073 405.324 250.153 405.134 250.242 404.954C250.261 404.902 250.285 404.852 250.312 404.804C250.342 404.742 250.375 404.682 250.412 404.624C250.432 404.594 250.462 404.554 250.482 404.524C250.496 404.49 250.513 404.457 250.532 404.425C250.621 404.285 250.721 404.135 250.831 403.995C250.881 403.935 250.921 403.885 250.971 403.835C251.005 403.784 251.045 403.737 251.09 403.695C251.121 403.647 251.158 403.603 251.2 403.565C251.24 403.525 251.28 403.475 251.33 403.425C251.351 403.394 251.378 403.366 251.41 403.345C251.489 403.254 251.575 403.171 251.669 403.095C252.025 402.767 252.405 402.466 252.806 402.196C252.946 402.106 253.096 402.016 253.235 401.916C254.241 401.313 255.3 400.805 256.398 400.396C256.777 400.256 257.156 400.127 257.565 399.987C257.715 399.947 257.855 399.897 258.004 399.847C258.224 399.777 258.443 399.707 258.673 399.657C259.81 399.317 261.037 399.027 262.364 398.757C262.524 398.727 262.693 398.697 262.863 398.657C263.103 398.607 263.352 398.567 263.601 398.527C263.941 398.467 264.29 398.407 264.639 398.347C267.602 397.878 270.964 397.528 274.676 397.298C275.025 397.278 275.374 397.258 275.723 397.238C276.132 397.218 276.541 397.198 276.96 397.178C277.31 397.158 277.669 397.148 278.028 397.138C278.377 397.118 278.736 397.108 279.105 397.098C280.113 397.068 281.151 397.038 282.208 397.018C285.221 396.958 288.394 396.978 291.726 397.048C293.273 397.088 294.849 397.128 296.465 397.198C296.575 397.198 296.675 397.208 296.774 397.208C298.181 397.258 299.598 397.318 301.055 397.398C302.072 397.448 303.1 397.498 304.127 397.558C305.095 397.618 306.073 397.678 307.061 397.748C307.829 397.788 308.597 397.848 309.375 397.898C310.034 397.948 310.692 397.998 311.351 398.037L312.249 398.097C312.737 398.137 313.226 398.167 313.725 398.217C314.823 398.307 315.92 398.397 317.037 398.487C318.145 398.587 319.272 398.687 320.4 398.787C321.527 398.887 322.664 398.997 323.802 399.107C323.921 399.117 324.031 399.127 324.141 399.137C325.179 399.247 326.216 399.347 327.264 399.457C327.503 399.477 327.753 399.497 327.992 399.527C328.991 399.627 330.009 399.745 331.017 399.852C331.326 399.886 331.634 399.918 331.944 399.952C332.734 400.038 333.512 400.113 334.307 400.206C335.355 400.326 336.423 400.436 337.46 400.576C338.268 400.666 339.076 400.756 339.884 400.856C341.151 401.006 342.438 401.166 343.725 401.336C344.214 401.396 344.703 401.456 345.192 401.526C348.864 401.986 352.575 402.495 356.346 403.025C362.063 403.835 367.87 404.714 373.716 405.664C379.572 406.614 385.462 407.617 391.385 408.673C392.882 408.943 394.378 409.212 395.885 409.492C396.563 409.622 397.241 409.752 397.92 409.882C399.077 410.092 400.234 410.312 401.392 410.532C402.549 410.752 403.706 410.972 404.864 411.201C406.241 411.471 407.627 411.741 409.004 412.011C418.073 413.81 427.092 415.729 435.892 417.739C437.338 418.068 438.785 418.408 440.222 418.738C443.095 419.408 445.942 420.087 448.762 420.777C449.54 420.957 450.308 421.147 451.077 421.337C452.992 421.817 454.908 422.297 456.793 422.786L457.123 422.876C458.509 423.216 459.866 423.566 461.223 423.926C464.426 424.765 467.575 425.615 470.671 426.475C472.726 427.044 474.758 427.621 476.767 428.204C479.77 429.073 482.713 429.953 485.577 430.843C486.285 431.063 486.993 431.282 487.692 431.492C489.787 432.142 491.852 432.802 493.857 433.461C495.454 433.981 497.01 434.511 498.547 435.041C500.083 435.571 501.59 436.1 503.066 436.63C504.014 436.97 504.952 437.33 505.889 437.67C507.236 438.169 508.563 438.669 509.86 439.169C510.259 439.319 510.649 439.479 511.038 439.629C511.287 439.739 511.526 439.829 511.766 439.929C512.235 440.118 512.714 440.298 513.173 440.488C513.642 440.668 514.1 440.858 514.559 441.058C515.008 441.238 515.467 441.428 515.906 441.618C516.355 441.798 516.794 441.988 517.233 442.188C517.602 442.337 517.962 442.497 518.311 442.657C519.019 442.967 519.727 443.277 520.416 443.597C520.755 443.757 521.094 443.907 521.433 444.067L522.212 444.426C522.321 444.486 522.431 444.536 522.541 444.586C522.79 444.706 523.05 444.836 523.299 444.956C523.878 445.226 524.447 445.516 525.005 445.786C525.753 446.166 526.482 446.546 527.18 446.915C527.889 447.295 528.577 447.675 529.235 448.045C529.345 448.105 529.445 448.165 529.555 448.225C529.704 448.305 529.854 448.395 530.004 448.475C530.512 448.765 531.001 449.064 531.49 449.354C532.448 449.944 533.356 450.524 534.204 451.103C534.393 451.233 534.573 451.363 534.763 451.483C535.391 451.933 535.99 452.373 536.548 452.823C536.548 452.833 536.548 452.833 536.558 452.833C536.748 452.973 536.928 453.123 537.107 453.262C537.257 453.402 537.416 453.522 537.566 453.662C538.085 454.112 538.564 454.542 539.003 454.982C539.15 455.117 539.29 455.261 539.422 455.412C539.48 455.46 539.533 455.513 539.581 455.571C539.781 455.771 539.961 455.971 540.13 456.171C540.156 456.199 540.18 456.229 540.2 456.261C540.439 456.541 540.659 456.821 540.868 457.101C540.968 457.241 541.078 457.381 541.168 457.521C541.287 457.69 541.407 457.87 541.507 458.04C541.597 458.18 541.677 458.33 541.756 458.47C541.968 458.83 542.148 459.208 542.295 459.6C542.407 459.865 542.497 460.139 542.564 460.419C542.64 460.685 542.697 460.955 542.734 461.229V461.229Z" fill="#2F2E41"/>
<path opacity="0.2" d="M542.733 461.229C542.723 462.978 542.704 465.427 542.624 468.456C542.614 468.876 542.594 469.305 542.584 469.745C542.484 473.993 542.334 479.241 542.125 485.168C542.115 485.528 542.105 485.878 542.085 486.238C541.806 493.475 541.367 501.901 540.608 515.245C539.202 539.894 536.747 518.633 534.283 527.279C527.439 523.061 519.936 518.643 511.915 514.105C510.468 513.286 509.008 512.463 507.535 511.636C491.492 502.67 473.574 493.275 454.867 483.969C454.129 483.599 453.381 483.229 452.642 482.869C409.792 461.649 363.02 441.008 325.128 427.234C317.815 424.576 310.831 422.177 304.266 420.068C290.438 415.64 278.486 412.541 269.287 411.202C259.71 409.802 253.095 410.302 250.421 413.191C250.321 411.152 250.218 409.199 250.112 407.333C250.072 406.714 250.032 406.104 249.992 405.504C250.054 405.34 250.134 405.183 250.211 405.024C250.222 405.001 250.23 404.977 250.242 404.954C250.261 404.903 250.284 404.852 250.311 404.804C250.341 404.742 250.374 404.682 250.411 404.625C250.444 404.554 250.484 404.487 250.531 404.425C250.621 404.285 250.72 404.135 250.83 403.995C250.911 403.89 250.998 403.79 251.09 403.695C251.12 403.647 251.157 403.603 251.199 403.565C251.239 403.525 251.279 403.475 251.329 403.425C251.35 403.394 251.378 403.367 251.409 403.345C251.488 403.254 251.575 403.171 251.668 403.095C252.024 402.767 252.404 402.466 252.806 402.196C252.945 402.106 253.095 402.016 253.235 401.916C254.24 401.313 255.299 400.805 256.397 400.396C256.776 400.257 257.156 400.127 257.565 399.987C257.714 399.947 257.854 399.897 258.004 399.847C258.223 399.777 258.443 399.707 258.672 399.657C259.809 399.317 261.037 399.027 262.363 398.757C262.763 398.677 263.182 398.597 263.601 398.527C263.94 398.467 264.289 398.407 264.638 398.347C267.601 397.878 270.964 397.528 274.675 397.298C275.024 397.278 275.373 397.258 275.723 397.238C276.132 397.218 276.541 397.198 276.96 397.178C277.309 397.158 277.668 397.148 278.027 397.138C278.376 397.118 278.736 397.108 279.105 397.098C280.112 397.068 281.15 397.038 282.208 397.018C285.221 396.968 288.393 396.988 291.725 397.058C293.272 397.088 294.848 397.138 296.464 397.208C296.564 397.208 296.674 397.218 296.774 397.218C298.18 397.258 299.607 397.328 301.054 397.398C302.071 397.448 303.099 397.498 304.127 397.558C305.094 397.618 306.072 397.678 307.06 397.748C307.828 397.788 308.596 397.848 309.374 397.898C310.033 397.948 310.691 397.998 311.35 398.038C312.138 398.097 312.926 398.158 313.724 398.217C314.822 398.307 315.919 398.397 317.037 398.487C318.144 398.587 319.272 398.687 320.399 398.787C321.526 398.887 322.664 398.997 323.801 399.107C323.921 399.117 324.031 399.127 324.14 399.137C325.178 399.247 326.215 399.347 327.263 399.457C333.07 400.047 339.046 400.736 345.191 401.526C348.863 401.996 352.581 402.499 356.346 403.035C362.062 403.845 367.869 404.724 373.715 405.664C379.572 406.614 385.461 407.617 391.384 408.673C392.881 408.943 394.377 409.212 395.884 409.492C397.72 409.832 399.555 410.179 401.391 410.532C402.548 410.752 403.706 410.972 404.863 411.202C406.24 411.471 407.627 411.741 409.003 412.011C418.072 413.81 427.091 415.73 435.891 417.739C437.338 418.068 438.784 418.408 440.221 418.738C443.094 419.408 445.941 420.088 448.761 420.777C449.539 420.967 450.308 421.157 451.076 421.347C453.001 421.827 454.907 422.307 456.793 422.786V422.796C456.902 422.816 457.012 422.846 457.122 422.876C458.499 423.226 459.866 423.576 461.222 423.936C464.425 424.775 467.574 425.622 470.671 426.475C472.726 427.054 474.761 427.624 476.766 428.204C479.769 429.084 482.713 429.963 485.576 430.843C486.284 431.063 486.993 431.283 487.691 431.492C489.786 432.152 491.841 432.809 493.857 433.462C495.453 433.981 497.009 434.511 498.546 435.041C500.082 435.571 501.589 436.1 503.065 436.63C504.023 436.97 504.961 437.32 505.889 437.66C507.246 438.159 508.563 438.659 509.86 439.169C510.259 439.319 510.648 439.479 511.037 439.629C511.765 439.909 512.474 440.199 513.172 440.488C513.641 440.668 514.1 440.858 514.559 441.058C515.008 441.238 515.467 441.428 515.906 441.618C516.355 441.798 516.794 441.988 517.233 442.188C517.602 442.338 517.961 442.497 518.31 442.657C519.018 442.967 519.727 443.277 520.415 443.597C520.754 443.757 521.094 443.907 521.433 444.067L522.211 444.427C522.321 444.487 522.43 444.537 522.54 444.587C523.388 444.986 524.206 445.386 525.004 445.786C525.753 446.166 526.481 446.546 527.179 446.916C528.008 447.355 528.796 447.785 529.554 448.225C529.704 448.305 529.853 448.395 530.003 448.475C530.512 448.765 531.001 449.065 531.489 449.354C532.447 449.944 533.355 450.524 534.203 451.104C535.041 451.683 535.819 452.253 536.548 452.823C536.548 452.833 536.548 452.833 536.558 452.833C536.907 453.113 537.246 453.393 537.565 453.662C538.084 454.112 538.563 454.542 539.002 454.982C539.149 455.118 539.289 455.261 539.421 455.412C539.479 455.46 539.533 455.513 539.581 455.572C539.79 455.801 540 456.031 540.199 456.261C540.439 456.541 540.658 456.821 540.868 457.101C540.968 457.241 541.077 457.381 541.167 457.521C541.287 457.691 541.407 457.871 541.506 458.04C541.596 458.18 541.676 458.33 541.756 458.47C541.967 458.831 542.148 459.208 542.294 459.6C542.404 459.866 542.494 460.14 542.564 460.419C542.639 460.685 542.696 460.956 542.733 461.229V461.229Z" fill="black"/>
</g>
<defs>
<clipPath id="clip0_523_1001">
<rect width="785" height="572" fill="white"/>
</clipPath>
</defs>
</svg>
